<svg xmlns="http://www.w3.org/2000/svg" xmlns:xlink="http://www.w3.org/1999/xlink" width="500" zoomAndPan="magnify" viewBox="0 0 375 374.999991" height="500" preserveAspectRatio="xMidYMid meet" version="1.0"><defs><g/><clipPath id="dca085691c"><path d="M 28 57 L 349 57 L 349 328 L 28 328 Z M 28 57 " clip-rule="nonzero"/></clipPath><clipPath id="4eeeddb2d2"><path d="M 326.246094 345.527344 L 14.265625 305.441406 L 49.800781 28.914062 L 361.777344 69.003906 Z M 326.246094 345.527344 " clip-rule="nonzero"/></clipPath><clipPath id="5c698c1809"><path d="M 326.246094 345.527344 L 14.265625 305.441406 L 49.800781 28.914062 L 361.777344 69.003906 Z M 326.246094 345.527344 " clip-rule="nonzero"/></clipPath><clipPath id="4058976fca"><path d="M 326.246094 345.527344 L 14.265625 305.441406 L 49.800781 28.914062 L 361.777344 69.003906 Z M 326.246094 345.527344 " clip-rule="nonzero"/></clipPath></defs><g clip-path="url(#dca085691c)"><g clip-path="url(#4eeeddb2d2)"><g clip-path="url(#5c698c1809)"><g clip-path="url(#4058976fca)"><path fill="#a8dfd5" d="M 288.90625 111.488281 C 251.136719 90.804688 206.121094 89.699219 163.785156 87.15625 C 146.503906 86.113281 129.316406 83.480469 112.425781 90.476562 C 85.734375 101.675781 66.871094 126.957031 49.160156 147.507812 C 10.894531 192.4375 30.472656 241.640625 68.960938 279.179688 C 91.898438 301.371094 120.605469 314.300781 152.226562 321.804688 C 200.175781 331.886719 234.925781 330.777344 277.3125 303.703125 C 325.070312 273.757812 353.589844 203.425781 347.210938 151.007812 C 342.511719 113.90625 313.386719 64.925781 270.480469 57.546875 C 285.214844 72.039062 305.707031 91.683594 289.769531 111.539062 " fill-opacity="1" fill-rule="nonzero"/></g></g></g></g><g fill="#ff7948" fill-opacity="1"><g transform="translate(181.563859, 300.766736)"><g><path d="M 23.851562 -113.417969 L 49.289062 -28.089844 L 66.78125 -111.828125 L 84.269531 -112.359375 L 57.238281 0 L 34.980469 0 L 4.769531 -113.949219 Z M 23.851562 -113.417969 "/></g></g></g><g fill="#ff7948" fill-opacity="1"><g transform="translate(104.589804, 226.5054)"><g><path d="M 22.847656 -108.660156 L 47.222656 -26.910156 L 63.976562 -107.136719 L 80.730469 -107.644531 L 54.835938 0 L 33.511719 0 L 4.570312 -109.167969 Z M 22.847656 -108.660156 "/></g></g></g><g fill="#ffdf2b" fill-opacity="1"><g transform="translate(161.530834, 329.842334)"><g/></g></g></svg>